<svg data-v-423bf9ae="" xmlns="http://www.w3.org/2000/svg" viewBox="0 0 216.70455294617648 60" class="font"><!----><!----><!----><g data-v-423bf9ae="" id="8ddb2d81-bfb3-4974-bdaf-037c3a593805" fill="black" transform="matrix(2.840909242630005,0,0,2.840909242630005,-0.8238633871078491,-0.02840982750058174)"><path d="M9.87 2.37L9.87 2.37Q10.07 2.37 10.07 2.64Q10.07 2.91 9.52 3.91Q8.97 4.90 8.61 5.40L8.61 5.40Q8.39 5.74 8.09 5.74Q7.78 5.74 7.78 5.54L7.78 5.54L7.80 5.42Q7.98 4.73 7.98 4.26L7.98 4.26Q7.98 3.53 7.59 3.53L7.59 3.53Q7.42 3.53 7.25 3.65Q7.08 3.77 7 3.89L7 3.89L6.92 4.02Q6.72 4.34 4.55 8.02L4.55 8.02Q4.06 8.86 3.54 9.93Q3.02 11.00 2.70 11.61Q2.38 12.22 2.06 12.48Q1.74 12.74 1.02 12.74Q0.29 12.74 0.29 12.50L0.29 12.50L0.29 12.46Q0.29 12.32 1.04 11.14L1.04 11.14Q3.77 6.85 5.17 4.12L5.17 4.12Q5.29 3.86 5.29 3.75L5.29 3.75Q5.29 3.57 5.05 3.57L5.05 3.57Q4.28 3.57 2.70 5.31L2.70 5.31Q2.55 5.59 1.99 5.59L1.99 5.59Q1.86 5.59 1.86 5.46L1.86 5.46Q1.86 5.36 2.04 5.05L2.04 5.05L2.32 4.55Q3.56 2.39 3.93 2.39L3.93 2.39Q4.66 2.39 5.03 2.67L5.03 2.67Q6.01 2.65 6.83 2.65Q7.66 2.65 8.47 2.67L8.47 2.67Q9.17 2.37 9.87 2.37ZM12.08 7.17L12.08 7.17Q12.68 7.17 12.68 7.87Q12.68 8.57 12.19 9.63L12.19 9.63Q11.48 11.13 10.57 12.22L10.57 12.22Q10.14 12.74 9.48 12.74L9.48 12.74Q9.27 12.74 9.27 12.63L9.27 12.63L9.32 12.47Q9.98 11.51 10.49 10.48Q11.00 9.45 11.00 8.99L11.00 8.99Q11.00 8.90 10.96 8.85Q10.91 8.79 10.79 8.78L10.79 8.78Q10.22 8.78 9.25 9.72Q8.27 10.65 7.57 11.61Q6.86 12.56 6.66 12.93Q6.45 13.30 6.24 13.38Q6.03 13.45 5.56 13.45Q5.08 13.45 5.08 13.29L5.08 13.29Q5.08 13.23 5.21 13.02Q5.35 12.81 6.22 11.13Q7.10 9.45 8.07 7.71Q9.04 5.96 10.20 4.14Q11.35 2.32 12.51 1.17Q13.66 0.01 14.52 0.01L14.52 0.01Q15.18 0.01 15.18 0.78L15.18 0.78Q15.18 2.27 13.82 3.96Q12.47 5.66 11.35 6.17L11.35 6.17Q11.10 6.29 10.83 6.29Q10.56 6.29 10.56 6.16L10.56 6.16L10.64 6.02Q12.01 5.07 12.82 3.82Q13.62 2.58 13.62 2.07L13.62 2.07Q13.62 1.90 13.58 1.84Q13.54 1.78 13.38 1.78L13.38 1.78Q12.88 1.78 11.74 3.42Q10.60 5.05 9.69 6.79Q8.78 8.53 8.78 8.90L8.78 8.90Q8.78 9.06 8.88 9.06Q8.99 9.06 9.17 8.92L9.17 8.92Q9.38 8.72 9.71 8.43Q10.04 8.13 10.81 7.65Q11.59 7.17 12.08 7.17ZM14.10 13.15L14.10 13.15Q13.29 13.15 12.91 12.66Q12.53 12.18 12.53 11.47Q12.53 10.77 12.84 9.99Q13.15 9.21 13.68 8.48Q14.22 7.76 15.10 7.26Q15.97 6.76 16.98 6.76L16.98 6.76Q17.44 6.76 17.68 7.05Q17.92 7.34 17.92 7.73L17.92 7.73Q17.92 8.54 17.35 9.24Q16.77 9.94 16.07 10.30Q15.37 10.67 14.83 10.72Q14.29 10.77 14.11 10.92Q13.93 11.07 13.93 11.54Q13.93 12.00 14.14 12.24Q14.35 12.47 14.56 12.56Q14.77 12.64 14.77 12.73L14.77 12.73Q14.77 12.92 14.56 13.03Q14.35 13.15 14.10 13.15ZM16.56 8.08L16.56 8.08Q16.56 7.64 16.17 7.64L16.17 7.64Q15.61 7.64 14.93 8.43Q14.25 9.21 14.25 9.84L14.25 9.84Q14.25 10.00 14.49 10.00L14.49 10.00Q15.06 10.00 15.81 9.41Q16.56 8.82 16.56 8.08ZM22.72 12.67L22.72 12.67Q21.98 12.67 21.77 12.62Q21.56 12.57 21.41 12.54Q21.27 12.50 21.22 12.49Q21.18 12.47 21.10 12.47L21.10 12.47Q20.93 12.47 20.79 12.56L20.79 12.56Q20.30 12.96 19.50 12.96L19.50 12.96Q19.08 12.96 19.08 12.78Q19.08 12.59 20.05 10.91Q21.03 9.23 22.21 7.17Q23.39 5.11 23.74 4.34Q24.08 3.57 24.08 3.01L24.08 3.01L24.08 2.90Q24.08 2.49 26.42 2.49L26.42 2.49Q29.89 2.49 29.89 4.86L29.89 4.86Q29.89 6.57 28.73 8.62L28.73 8.62Q28.13 9.70 27.31 10.60Q26.50 11.49 25.29 12.08Q24.08 12.67 22.72 12.67ZM27.33 7.88Q27.85 6.87 28.12 6.00Q28.39 5.12 28.39 4.53Q28.39 3.93 28.05 3.63Q27.71 3.32 26.89 3.32L26.89 3.32Q26.33 3.32 26.00 3.71L26.00 3.71Q25.12 4.82 23.45 7.79Q21.78 10.77 21.78 11.27L21.78 11.27Q21.78 11.83 22.97 11.83L22.97 11.83Q23.81 11.83 24.67 11.24Q25.52 10.65 26.17 9.77Q26.81 8.88 27.33 7.88ZM31.35 11.86L31.35 11.86L31.37 11.56Q31.37 11.45 31.29 11.45L31.29 11.45Q31.16 11.45 30.78 11.82Q30.39 12.18 29.81 12.55Q29.23 12.92 28.65 12.92Q28.07 12.92 28.07 12.07L28.07 12.07Q28.07 11.00 28.99 9.62L28.99 9.62Q29.47 8.92 30.09 8.32Q30.72 7.73 31.61 7.34Q32.51 6.96 33.49 6.96L33.49 6.96Q34.01 6.96 34.37 7.23Q34.73 7.50 34.73 7.90Q34.73 8.30 34.50 8.30L34.50 8.30Q34.37 8.30 34.16 8.15L34.16 8.15Q33.77 7.88 32.93 7.88L32.93 7.88Q31.82 7.88 30.84 8.88Q29.85 9.88 29.85 10.86L29.85 10.86Q29.85 10.99 29.93 11.10Q30.00 11.21 30.14 11.21L30.14 11.21Q30.56 11.21 31.22 10.63Q31.88 10.05 32.51 8.96L32.51 8.96Q32.55 8.83 32.82 8.72Q33.08 8.61 33.45 8.61L33.45 8.61Q33.96 8.65 33.96 8.83L33.96 8.83Q33.96 8.85 33.86 9.01Q33.75 9.17 33.49 9.59Q33.22 10.01 32.74 10.97Q32.26 11.93 32.17 12.49L32.17 12.49Q32.16 12.66 32.03 12.66L32.03 12.66Q31.35 12.66 31.35 11.86ZM34.22 13.06L34.22 13.06Q34.02 13.06 33.78 12.82Q33.54 12.57 33.54 12.22L33.54 12.22Q33.54 12.03 34.46 10.24Q35.38 8.46 35.41 7.83L35.41 7.83Q35.41 7.63 35.66 7.46L35.66 7.46Q36.11 7.20 36.99 7.20L36.99 7.20Q37.16 7.20 37.34 7.26Q37.53 7.32 37.53 7.43L37.53 7.43Q37.53 7.49 37.49 7.53L37.49 7.53Q36.96 8.20 35.94 9.95Q34.92 11.70 34.40 12.80L34.40 12.80Q34.33 13.06 34.22 13.06ZM37.28 6.41L37.28 6.41Q36.67 6.41 36.64 5.92L36.64 5.92L36.64 5.91Q36.64 5.49 37.05 5.22Q37.46 4.96 37.87 4.96L37.87 4.96Q38.49 4.96 38.51 5.45L38.51 5.45Q38.51 5.87 38.11 6.14Q37.70 6.41 37.28 6.41ZM36.26 12.88Q36.26 12.32 36.72 11.14Q37.18 9.95 37.76 8.83Q38.33 7.71 39.31 6.08L39.31 6.08Q40.77 3.65 42.31 1.27L42.31 1.27Q42.55 0.90 43.05 0.66Q43.55 0.42 43.96 0.42Q44.37 0.42 44.38 0.64L44.38 0.64Q44.38 0.71 44.30 0.80L44.30 0.80Q43.82 1.23 42.70 2.81Q41.58 4.38 40.33 6.41Q39.07 8.44 38.13 10.70Q37.18 12.95 37.18 14.38L37.18 14.38Q37.18 14.59 37.06 14.59L37.06 14.59Q36.82 14.59 36.65 14.41Q36.48 14.24 36.41 13.97L36.41 13.97Q36.26 13.44 36.26 12.88ZM35.52 21.13L35.52 21.13Q34.93 21.13 34.93 20.15Q34.93 19.17 35.50 17.97Q36.08 16.77 36.88 15.77Q37.69 14.77 38.60 14.07Q39.51 13.37 40.12 13.37L40.12 13.37Q40.33 13.37 40.33 13.47Q40.33 13.57 40.17 13.65L40.17 13.65Q39.63 13.93 38.81 14.85Q38.00 15.76 37.33 16.95Q36.67 18.13 36.67 18.94L36.67 18.94Q36.67 19.29 36.92 19.29L36.92 19.29Q37.41 19.29 38.40 17.92L38.40 17.92Q40.01 15.72 41.69 12.32L41.69 12.32Q42.20 11.31 42.20 11.12Q42.20 10.92 42.08 10.92L42.08 10.92Q41.94 10.92 41.80 11.06L41.80 11.06Q40.24 12.40 39.37 12.40L39.37 12.40Q38.74 12.40 38.74 11.73Q38.74 11.05 39.49 9.63Q40.24 8.20 41.01 7.43L41.01 7.43Q41.17 7.27 41.47 7.16Q41.76 7.06 42.08 7.06Q42.39 7.06 42.39 7.20L42.39 7.20Q42.39 7.25 41.94 7.84L41.94 7.84Q40.59 9.65 40.59 10.42L40.59 10.42Q40.59 10.75 40.88 10.75L40.88 10.75Q41.40 10.75 42.48 9.74Q43.57 8.74 44.38 7.38L44.38 7.38Q44.63 6.87 45.50 6.87L45.50 6.87Q45.92 6.87 45.92 7.04L45.92 7.04Q45.92 7.08 45.88 7.15L45.88 7.15Q44.52 9.39 43.40 11.47Q42.28 13.55 41.60 14.68Q40.92 15.81 40.09 17.02Q39.26 18.24 38.49 19.12Q37.73 19.99 36.94 20.56Q36.15 21.13 35.52 21.13ZM54.71 9.07L54.71 9.07Q54.71 10.56 53.49 11.56Q52.26 12.56 50.36 12.56L50.36 12.56Q49.31 12.56 48.76 12.25L48.76 12.25Q48.71 12.22 48.64 12.22Q48.57 12.22 48.12 12.38Q47.67 12.53 47.22 12.53Q46.76 12.53 46.76 12.26L46.76 12.26Q46.76 11.90 47.64 10.37Q48.52 8.83 49.21 8.30L49.21 8.30Q49.50 8.08 49.78 8.08Q50.06 8.08 50.06 8.23L50.06 8.23Q50.06 8.26 49.88 8.58Q49.69 8.89 49.50 9.41Q49.31 9.93 49.31 10.30Q49.31 10.67 49.38 10.92Q49.46 11.17 49.78 11.43Q50.09 11.69 50.55 11.69Q51.00 11.69 51.40 11.58Q51.80 11.47 52.19 11.23Q52.58 10.99 52.84 10.53Q53.09 10.07 53.09 9.46Q53.09 8.85 52.71 8.22Q52.33 7.59 51.88 7.15Q51.44 6.71 51.06 6.14Q50.68 5.57 50.68 5.03Q50.68 4.49 50.97 4.03Q51.25 3.57 51.68 3.30Q52.11 3.02 52.65 2.84L52.65 2.84Q53.58 2.53 54.29 2.53Q55.01 2.53 55.35 2.60Q55.69 2.66 55.87 2.72Q56.04 2.77 56.08 2.77Q56.13 2.77 56.20 2.73L56.20 2.73Q56.62 2.49 57.11 2.49Q57.60 2.49 57.60 2.73L57.60 2.73Q57.60 3.12 56.66 4.49Q55.73 5.85 55.27 5.85L55.27 5.85Q54.89 5.85 54.89 5.68L54.89 5.68Q54.89 5.66 54.99 5.49L54.99 5.49Q55.30 4.93 55.30 4.21L55.30 4.21Q55.30 3.82 54.96 3.61Q54.63 3.39 54.27 3.39Q53.91 3.39 53.54 3.50Q53.17 3.61 52.80 3.95Q52.43 4.28 52.43 4.75Q52.43 5.22 52.79 5.73Q53.14 6.24 53.57 6.67Q54.00 7.10 54.36 7.75Q54.71 8.40 54.71 9.07ZM57.83 11.86L57.83 11.86L57.86 11.56Q57.86 11.45 57.78 11.45L57.78 11.45Q57.65 11.45 57.27 11.82Q56.88 12.18 56.30 12.55Q55.72 12.92 55.14 12.92Q54.56 12.92 54.56 12.07L54.56 12.07Q54.56 11.00 55.48 9.62L55.48 9.62Q55.96 8.92 56.58 8.32Q57.20 7.73 58.10 7.34Q59.00 6.96 59.98 6.96L59.98 6.96Q60.49 6.96 60.86 7.23Q61.22 7.50 61.22 7.90Q61.22 8.30 60.98 8.30L60.98 8.30Q60.86 8.30 60.65 8.15L60.65 8.15Q60.26 7.88 59.42 7.88L59.42 7.88Q58.31 7.88 57.32 8.88Q56.34 9.88 56.34 10.86L56.34 10.86Q56.34 10.99 56.41 11.10Q56.49 11.21 56.63 11.21L56.63 11.21Q57.05 11.21 57.71 10.63Q58.37 10.05 59.00 8.96L59.00 8.96Q59.04 8.83 59.30 8.72Q59.57 8.61 59.93 8.61L59.93 8.61Q60.45 8.65 60.45 8.83L60.45 8.83Q60.45 8.85 60.35 9.01Q60.24 9.17 59.98 9.59Q59.71 10.01 59.23 10.97Q58.74 11.93 58.66 12.49L58.66 12.49Q58.65 12.66 58.52 12.66L58.52 12.66Q57.83 12.66 57.83 11.86ZM67.42 3.40L67.42 3.40L68.11 3.37Q68.25 3.37 68.25 3.43Q68.25 3.49 68.22 3.57Q68.19 3.65 68.10 3.78Q68.01 3.91 67.89 4.00L67.89 4.00Q67.55 4.27 67.05 4.27Q66.56 4.27 66.33 4.30Q66.09 4.33 65.93 4.44Q65.76 4.55 65.70 4.61Q65.65 4.66 65.51 4.89Q65.37 5.11 65.31 5.19L65.31 5.19Q64.57 6.23 62.91 9.10Q61.25 11.97 60.84 13.54L60.84 13.54Q60.80 13.68 60.59 13.68Q60.37 13.68 59.99 13.31Q59.61 12.95 59.61 12.57Q59.61 12.19 60.75 10.32Q61.89 8.44 63.04 6.63Q64.19 4.82 64.19 4.61Q64.19 4.41 64.02 4.36Q63.85 4.31 63.43 4.31L63.43 4.31L62.97 4.31Q62.79 4.31 62.79 4.14Q62.79 3.98 62.95 3.79Q63.11 3.60 63.44 3.46Q63.77 3.32 64.11 3.18Q64.46 3.04 65.01 2.55Q65.56 2.06 66.12 1.29L66.12 1.29Q66.47 0.81 67.33 0.81L67.33 0.81Q67.62 0.81 67.62 0.99L67.62 0.99Q67.62 1.11 66.99 2.02Q66.36 2.93 66.36 3.16Q66.36 3.39 66.78 3.39L66.78 3.39Q66.95 3.40 67.42 3.40ZM63.27 13.06L63.27 13.06Q63.07 13.06 62.83 12.82Q62.59 12.57 62.59 12.22L62.59 12.22Q62.59 12.03 63.51 10.24Q64.43 8.46 64.46 7.83L64.46 7.83Q64.46 7.63 64.71 7.46L64.71 7.46Q65.16 7.20 66.04 7.20L66.04 7.20Q66.21 7.20 66.40 7.26Q66.58 7.32 66.58 7.43L66.58 7.43Q66.58 7.49 66.54 7.53L66.54 7.53Q66.01 8.20 64.99 9.95Q63.97 11.70 63.45 12.80L63.45 12.80Q63.38 13.06 63.27 13.06ZM66.33 6.41L66.33 6.41Q65.72 6.41 65.69 5.92L65.69 5.92L65.69 5.91Q65.69 5.49 66.10 5.22Q66.51 4.96 66.92 4.96L66.92 4.96Q67.54 4.96 67.56 5.45L67.56 5.45Q67.56 5.87 67.16 6.14Q66.75 6.41 66.33 6.41ZM70.17 10.57Q69.90 10.57 69.76 10.30Q69.62 10.02 69.62 9.77Q69.62 9.51 69.79 9.17L69.79 9.17Q69.79 8.99 69.65 8.99L69.65 8.99Q69.10 8.99 68.40 9.64Q67.70 10.29 67.23 10.98Q66.75 11.68 66.36 12.38L66.36 12.38Q66.12 12.80 65.38 12.80L65.38 12.80Q65.00 12.80 65.00 12.63L65.00 12.63Q65.00 12.25 66.38 9.81Q67.76 7.36 68.21 7.20L68.21 7.20Q68.52 7.04 68.90 7.04Q69.29 7.04 69.29 7.20Q69.29 7.36 68.96 7.83Q68.64 8.29 68.64 8.41Q68.64 8.54 68.74 8.54L68.74 8.54Q68.80 8.54 69.05 8.37L69.05 8.37Q69.66 7.91 70.56 7.42L70.56 7.42L70.69 7.25Q71.02 6.83 71.66 6.83Q72.30 6.83 72.30 7.08L72.30 7.08Q72.27 7.15 72.16 7.31L72.16 7.31Q71.05 8.82 70.29 10.47L70.29 10.47Q70.24 10.57 70.17 10.57L70.17 10.57ZM72.74 13.15L72.74 13.15Q71.93 13.15 71.55 12.66Q71.18 12.18 71.18 11.47Q71.18 10.77 71.48 9.99Q71.79 9.21 72.33 8.48Q72.87 7.76 73.75 7.26Q74.62 6.76 75.63 6.76L75.63 6.76Q76.09 6.76 76.33 7.05Q76.57 7.34 76.57 7.73L76.57 7.73Q76.57 8.54 75.99 9.24Q75.42 9.94 74.72 10.30Q74.02 10.67 73.48 10.72Q72.94 10.77 72.76 10.92Q72.58 11.07 72.58 11.54Q72.58 12.00 72.79 12.24Q73.00 12.47 73.21 12.56Q73.42 12.64 73.42 12.73L73.42 12.73Q73.42 12.92 73.21 13.03Q73.00 13.15 72.74 13.15ZM75.21 8.08L75.21 8.08Q75.21 7.64 74.82 7.64L74.82 7.64Q74.26 7.64 73.58 8.43Q72.90 9.21 72.90 9.84L72.90 9.84Q72.90 10.00 73.14 10.00L73.14 10.00Q73.71 10.00 74.46 9.41Q75.21 8.82 75.21 8.08Z"></path></g><!----><!----></svg>